<svg xmlns="http://www.w3.org/2000/svg" width="960" height="540" viewBox="0 0 960 540">
  <rect width="960" height="540" fill="#111827" rx="20"/>
  <rect x="40" y="40" width="880" height="120" fill="#1f2937" rx="16"/>
  <rect x="40" y="180" width="280" height="320" fill="#1f2937" rx="16"/>
  <rect x="360" y="180" width="280" height="320" fill="#1f2937" rx="16"/>
  <rect x="680" y="180" width="240" height="320" fill="#1f2937" rx="16"/>
  <text x="60" y="95" fill="#e2e8f0" font-family="Arial, sans-serif" font-size="28">Experiment manager</text>
  <text x="60" y="225" fill="#94a3b8" font-family="Arial, sans-serif" font-size="18">Saved experiments</text>
  <text x="380" y="225" fill="#94a3b8" font-family="Arial, sans-serif" font-size="18">Clone & edit</text>
  <text x="700" y="225" fill="#94a3b8" font-family="Arial, sans-serif" font-size="18">Batch jobs</text>
  <rect x="80" y="260" width="220" height="40" fill="#334155" rx="10"/>
  <rect x="80" y="320" width="220" height="40" fill="#334155" rx="10"/>
  <rect x="400" y="260" width="220" height="40" fill="#334155" rx="10"/>
  <rect x="400" y="320" width="220" height="40" fill="#334155" rx="10"/>
  <rect x="720" y="260" width="160" height="80" fill="#334155" rx="10"/>
  <rect x="720" y="370" width="160" height="80" fill="#334155" rx="10"/>
</svg>